<svg id="Livello_1" data-name="Livello 1" xmlns="http://www.w3.org/2000/svg" viewBox="0 0 980 980"><defs><style>.cls-1{fill:#41b93c;}.cls-2{fill:#fcac38;}.cls-3{fill:#fffffe;}</style></defs><path d="M453.3,944.6l-2.8-2.4L450,894l-.5-48.3L437,838c-6.9-4.3-34.5-21.3-61.5-38s-50-31.3-51.2-32.6l-2.3-2.5V546.8l2.9-2.9c5-5,8.6-4.2,22.1,4.8,7.9,5.2,11,6.9,9.9,5.2-.9-1.3-3.7-6-6.2-10.5-7.1-12.2-7-12.7,5.9-35.3,5.9-10.2,12-20.5,13.5-22.9l2.9-4.3-2.3-3.2c-1.3-1.8-7.4-12-13.5-22.8C347.7,438.3,346,434.7,346,431s1.7-7.2,11.2-23.9c6.2-10.8,12.5-20.9,13.9-22.5l2.7-3L371,378c-1.5-1.9-7.8-12.2-13.9-22.9-9.5-16.7-11.1-20-11.1-23.8s1.6-7.2,11.7-24.6c6.4-11.1,12.7-21.4,14-22.8l2.3-2.6-2-1.8c-1.1-1-3.9-5-6.1-8.9C345.8,236,346,236.3,346,231.7c0-3.8,1.6-7.1,11.1-23.8,6.1-10.7,12.2-20.9,13.6-22.6l2.4-3.3-2.4-3.2c-1.3-1.8-7.4-12.1-13.5-22.9C347.8,139.5,346,135.6,346,132c0-4.2,0-4.3,20-38.7,2.3-4,5.5-8.4,7.2-9.8l3.1-2.6,27.8.3,27.8.3.5-2.5c.8-3.7,23.3-42.1,26.2-44.8C461.1,32,461.5,32,489,32s27.9,0,30.4,2.3c2.9,2.6,25.5,41,26.2,44.7l.5,2.5,27.9-.3,27.9-.3,3.5,3.3c1.9,1.8,8.7,12.3,15,23.3C630.5,125,632,128.2,632,132.1s-1.6,7.2-12.1,25.4c-6.6,11.6-12.8,21.8-13.6,22.8-1.5,1.5-1.5,1.9,0,3.5.8.9,7,11.1,13.6,22.7,10.3,17.9,12.1,21.6,12.1,25.3s-1.7,7.3-12.2,25.3c-6.7,11.6-13.1,21.8-14.2,22.6-2.1,1.6-2.1,1.6.8,4.7,1.5,1.7,7.9,12.1,14.2,23C630.1,324,632,328,632,331.5s-1.9,7.5-12.1,25.1c-6.7,11.5-13,21.8-14,23-1.8,2-1.8,2.2-.3,3.5,2.1,1.8,3.9,4.6,16.2,26.1,8.6,14.8,10.2,18.3,10.2,21.9s-1.8,7.4-12.1,25.3c-6.7,11.6-12.8,21.9-13.7,22.9-1.4,1.5-1.3,1.9.1,3.5.8.9,7,11.1,13.6,22.7,14.6,25.3,14.6,25.4,7.4,37.9-2.5,4.5-5.3,9.2-6.2,10.5-1.1,1.7,2,0,9.9-5.2,9.9-6.6,12.1-7.7,15.8-7.7,3.5,0,4.9.6,7.3,2.9l2.9,2.9V763.9l-2.3,2.6c-1.2,1.4-30.1,19.9-64.2,40.9l-62,38.4L528,894l-.5,48.2-2.8,2.4c-2.7,2.3-3.5,2.4-16.6,2.4-12.5,0-14.1-.2-16.5-2.1l-2.6-2-2.6,2c-2.4,1.9-4,2.1-16.5,2.1-13.1,0-13.9-.1-16.6-2.4ZM478,793.8l-.1-141.3-15.2-10.2L447.5,632,436,612.3l-11.6-19.8-18.9-.5-19-.5L361,574.4c-14-9.4-26.1-17.4-26.8-17.8-.9-.6-1.2,19.8-1.2,100.2v101l62.8,38.8c34.5,21.3,63.5,39.4,64.5,40.2,1.6,1.4,1.7,5,1.7,49.2,0,26.2.3,48,.7,48.3s3.9.7,8,.7H478V793.8Zm38,92.9c0-44.8.1-48.5,1.8-49.9,1.5-1.3,28-17.8,100.7-62.6,9.4-5.8,19.1-11.8,21.8-13.4l4.7-3v-101c0-80.4-.3-100.8-1.2-100.2-.7.4-12.9,8.5-27,18L591.2,592l-18.9.2-18.8.3L542,612.4l-11.5,19.9-15.2,10.1-15.2,10.1L500,793.1c0,77.3.3,140.9.7,141.2s3.9.7,8,.7H516ZM497.6,638l8.8-6H471.6l8.5,5.9c4.6,3.2,8.5,5.9,8.5,6S492.7,641.3,497.6,638Zm23.9-37.9,11.3-19.3-9.1-15.7c-5-8.6-10.1-17.3-11.4-19.3L510,542H489.1c-15.5,0-21.1.3-21.9,1.3-.5.6-5.7,9.4-11.5,19.3l-10.5,18.2,11,18.8c6,10.4,11.4,19.2,12.1,19.6s10.4.7,21.6.5l20.3-.2,11.3-19.4ZM434.9,551c6.1-10.5,11.1-19.6,11.1-20.3s-4.9-9.5-10.9-19.7l-10.7-18.5-21.5-.3-21.4-.2-11.3,19.4L359,530.9l10.6,18.3c5.9,10.1,11.1,18.9,11.6,19.6.8.9,6.4,1.2,21.8,1.2h20.8Zm172.8-.8L619,530.9l-11.2-19.5L596.5,492l-21.4.2-21.5.3L542.9,511c-6,10.2-10.8,19-10.9,19.7s5,9.8,11.1,20.3l11.1,19,21.1-.2,21.2-.3,11.2-19.3ZM521.2,501c5.9-10.2,10.8-19.2,10.8-20s-4.9-9.8-10.8-20l-10.7-18.5h-43l-11.2,19.3-11.2,19.4,4.8,8.1c2.7,4.5,7.4,12.7,10.6,18.2s6.2,10.6,6.8,11.3c.7.9,5.9,1.2,22.1,1l21.1-.3L521.2,501Zm-86.1-50.3c6-10.4,10.9-19.2,10.9-19.7s-5-9.4-11.1-19.9L423.8,392H382l-2.4,3.8c-1.3,2-6.5,10.8-11.5,19.4L359,430.9l11.2,19.6L381.4,470l21.4-.2,21.5-.3Zm172.6-.2L618.9,431l-11.2-19.3-11.2-19.2H553.8L542.9,411c-5.9,10.2-10.8,19.1-10.9,19.8,0,1.2,18.9,35,21.3,38,.7.9,6.3,1.2,22.1,1.2h21.1l11.2-19.5Zm-95.4-34.2c5.3-8.4,19.7-34.1,19.7-35.1,0-.6-4.9-9.5-10.9-19.9l-10.8-18.8H467.6l-11.2,19.4-11.3,19.4,2.7,4.7c1.5,2.5,6.5,11.2,11.2,19.3l8.4,14.7H510ZM435.1,351c6-10.2,10.8-18.9,10.9-19.4s-4.8-9.3-10.7-19.7l-10.8-18.8-21.7-.1H381.2l-10.8,18.6c-5.9,10.3-10.7,19.2-10.7,19.8s4.9,9.6,10.8,19.9L381.4,370l21.5-.2,21.4-.3L435.1,351Zm172.3.2c6-10.3,10.9-19.2,10.9-19.8s-4.9-9.5-10.8-19.8L596.6,293H553.5l-11.1,19.2-11.1,19.1,9.9,17.1c5.5,9.4,10.6,18.1,11.4,19.4,1.4,2.2,1.7,2.2,22.7,2.2h21.2l10.9-18.8Zm-86-50.1c6-10.4,11-19.1,11-19.3s-4.8-9.1-10.9-19.6l-11-19.1L489,243H467.5l-11.2,19.3-11.1,19.2,1.7,3c1,1.7,6,10.3,11.2,19.3l9.3,16.2h43.1Zm-97.8-30.9c1-.7,20.7-34.3,21.9-37.4.4-1.1-2.9-7.8-9.6-19.5-5.6-9.8-10.9-18.6-11.7-19.6-1.4-1.6-3.5-1.7-22.1-1.5l-20.5.3-11.4,19.6-11.3,19.7,10.7,18.3c5.9,10.1,11.4,19,12.2,19.7C383.6,271.1,421.6,271.6,423.6,270.2Zm184-19,11.2-19.4-4-7.1c-10.5-18.5-18.1-31.3-19.2-31.9-1.4-1-39.8-1-41.2,0s-22.4,37.5-22.4,39,21,37.5,22.4,38.4c.6.5,10.3.7,21.6.5l20.4-.2,11.2-19.3ZM521.1,202c5.9-10.2,10.8-19.2,10.8-20s-4.8-9.8-10.7-20l-10.7-18.5-21.5-.3-21.5-.2-11.2,19.5-11.2,19.4,10,17.3c5.5,9.5,10.7,18.3,11.5,19.6,1.5,2.2,1.6,2.2,22.6,2l21.1-.3L521.1,202Zm-86-50c6-10.2,10.8-19,10.9-19.7s-5-9.7-11.1-20.2L423.8,93l-21.1.2-21.2.3-11.2,19.2L359.1,132l11.2,19.5L381.5,171l21.4-.2,21.5-.3L435.1,152Zm172.7-.5L619,132.1l-11.2-19.3L596.5,93.5l-21.2-.3L554.2,93l-11.1,19C537,122.5,532,131.6,532,132.1c0,.9,15.9,29.1,20.6,36.7,1.4,2.2,1.7,2.2,22.7,2.2h21.2l11.3-19.5Zm-86.2-49.8,11.1-19.4L521.5,62.9,510.3,43.5H467.7L456.5,62.8,445.2,82.2l11.1,19.4L467.4,121h43.1Z"/><path class="cls-1" d="M459.7,937.3c-.4-.3-.7-22.1-.7-48.3,0-44.2-.1-47.8-1.7-49.2-1-.8-30-18.9-64.5-40.2L330,760.8V655.4c0-75.6.3-105.4,1.1-105.4.6,0,14,8.7,29.7,19.3l28.7,19.2,19,.5,18.9.5L439,609.3,450.5,629l15.2,10.3,15.2,10.2.1,144.3V938H470.7c-5.7,0-10.7-.3-11-.7Zm-97.5-186a51.65,51.65,0,0,1-9-16.8l-3.1-9,.2,11.4.2,11.5,8.5,5.2c4.7,2.9,8.6,5.3,8.8,5.3a89.82,89.82,0,0,0-5.6-7.6Z"/><path class="cls-1" d="M497.7,937.3c-.4-.3-.7-65.2-.7-144.2l.1-143.6,15.2-10.1,15.2-10.1L539,609.4l11.5-19.9,18.8-.3,18.8-.2L617,569.5c15.9-10.7,29.3-19.5,29.9-19.5.8,0,1.1,30.4,1.1,105.4V760.8l-4.7,3c-2.7,1.6-12.4,7.6-21.8,13.4-72.7,44.8-99.2,61.3-100.7,62.6-1.7,1.4-1.8,5.1-1.8,49.9V938H508.7c-5.7,0-10.7-.3-11-.7Zm128.6-187L630,748l-.1-11.3V725.5l-3.7,10c-2.6,7-5.2,12-8.7,16.5l-5,6.5,5-2.9C620.3,754,624.2,751.6,626.3,750.3Z"/><path class="cls-2" d="M465.3,622.2c-1.3-.8-24.3-40.1-24.3-41.5,0-.9,17.2-31.1,21.6-38l2.5-3.7,24.2.2,24.2.3,11.7,20c6.4,11,11.7,20.5,11.8,21s-5.3,10.3-11.9,21.5l-11.9,20.5-23.3.2c-12.9.2-23.9-.1-24.6-.5Z"/><path class="cls-2" d="M376.7,569.3c-6.3-10-21.7-37.3-21.7-38.4,0-.7,5.3-10.4,11.7-21.6L378.5,489l24.4.2,24.5.3,11.9,20.7,12,20.7-12.1,20.8-12,20.8-24.1.3L379,573l-2.3-3.7Z"/><path class="cls-2" d="M539.6,553.1c-6.4-10.9-11.8-20.5-12.1-21.3s4.8-10.5,11.3-21.8l11.8-20.5,24.5-.3,24.4-.2,11.8,20.3c6.4,11.2,11.7,21,11.7,21.8s-5.4,10.4-11.8,21.4l-11.7,20-24.2.3-24.1.2-11.6-19.9Z"/><path class="cls-2" d="M464.3,521.8c-2.6-3.4-23.3-39.8-23.2-41,0-.7,5.3-10.3,11.7-21.3l11.7-20h49l11.7,20.4c6.5,11.1,11.8,20.8,11.7,21.5s-5.3,10.1-11.7,21.1l-11.7,20-24.1.3C470.8,523,465,522.7,464.3,521.8Z"/><path class="cls-2" d="M366.3,452l-12-21.1,11.4-19.7c6.3-10.8,12-20.3,12.5-20.9.8-1,7-1.3,24.8-1.3h23.8L439,410l12.2,21-12,20.8-11.9,20.7-24.5.3-24.4.2Z"/><path class="cls-2" d="M549.6,470.8c-3-4.6-22.6-39.2-22.6-39.8,0-.3,5.3-9.8,11.9-21l11.9-20.5h48.7l11.7,20c6.4,11,11.7,20.6,11.8,21.3s-5.3,10.5-11.7,21.7L599.5,473H575.3c-24.1,0-24.3,0-25.7-2.2Z"/><path class="cls-2" d="M452.7,402.7c-6.4-11.2-11.7-20.9-11.7-21.5s5.3-10.2,11.8-21.4l11.8-20.3h48.7L525.1,360c6.5,11.3,11.9,20.8,11.9,21.2,0,.7-21.7,38.6-23.2,40.6-.8.9-7.1,1.2-25.2,1.2H464.4l-11.7-20.3Z"/><path class="cls-2" d="M367.1,353.5c-6.2-10.7-11.5-20.3-11.8-21.3s4.1-9.7,11.2-22l11.6-20.1,24.1-.3c13.2-.2,24.3-.1,24.7.2s6,9.7,12.4,20.9l11.8,20.4-5.2,9.1c-2.8,5-8.3,14.4-12.1,20.9L426.9,373H378.4l-11.3-19.5Z"/><path class="cls-2" d="M550.3,371.8c-1.6-2.1-23.3-39.7-23.3-40.5,0-.3,5.3-9.8,11.8-21L550.5,290h49.1l10.6,18.3c5.9,10,11.2,19.4,11.9,20.9,1.3,3,2.5.5-17.2,34.5l-5.4,9.3H575.4c-18.2,0-24.4-.3-25.1-1.2Z"/><path class="cls-2" d="M455.3,307.3c-5-8.7-10.4-18.1-11.9-20.9l-2.8-5.1,11.9-20.6,12-20.7H489l24.5.1,11,19c6.1,10.5,11.4,19.9,11.9,20.9.7,1.5-1.8,6.5-11,22.4L513.5,323H464.4l-9.1-15.7Z"/><path class="cls-2" d="M379.1,273.1c-.7-.5-6.6-10-13.1-21.1l-11.8-20.2,12.2-21.2,12.2-21.1,23.3-.3c15.3-.1,23.8.1,24.6.8s6.6,10.2,13,21.4l11.7,20.4-11.8,20.4c-6.5,11.1-12.3,20.6-12.8,21-1.5,1.1-45.8,1-47.5-.1Z"/><path class="cls-2" d="M551.4,273.2c-1-.6-22.8-37.5-24-40.5-.5-1.4,21.9-41.6,24-42.9,1.5-1,45.8-1,47.3,0s24.3,40.5,24.3,42c0,.6-5.3,10.2-11.8,21.4l-11.8,20.3-23.5.2C563.1,273.9,552,273.7,551.4,273.2Z"/><path class="cls-2" d="M464.3,222.8C462.2,220.1,441,183,441,182c0-.6,5.3-10.3,11.8-21.6L464.5,140l24.5.2,24.5.3,11.7,20c6.4,11,11.7,20.5,11.7,21s-5.2,10.3-11.7,21.5l-11.9,20.5-24,.3C470.8,224,465,223.7,464.3,222.8Z"/><path class="cls-2" d="M366.7,153.6c-6.4-11.3-11.7-21.1-11.7-21.8s5.3-10.3,11.8-21.3l11.7-20h48.6l12.1,20.8,12,20.8-11.9,20.7-11.9,20.7-24.5.3-24.4.2Z"/><path class="cls-2" d="M550.3,172.8c-.6-.7-6.1-10.2-12.3-21l-11.3-19.7,12.1-20.8,12.1-20.8h48.6l11.7,20c6.5,11,11.7,20.6,11.8,21.4s-5.3,10.6-11.7,21.8L599.6,174H575.4c-18.1,0-24.4-.3-25.1-1.2Z"/><path class="cls-2" d="M452.7,103.5C446.3,92.2,441,82.7,441,82.2s5.3-10,11.9-21.2l11.8-20.5h48.6L525.1,61C531.6,72.3,537,81.9,537,82.3s-5.3,10-11.7,21.2L513.5,124H464.4l-11.7-20.5Z"/><path class="cls-3" d="M364.5,761.7l-17-10.3-.3-21.7c-.1-11.9.1-21.7.5-21.7s3.2,7.3,6.2,16.3l5.4,16.2L369.5,754c9,11.9,13.2,18.1,12.3,18-.2-.1-7.9-4.7-17.3-10.3Z"/><path class="cls-3" d="M599,770.1c0-.4,4.7-6.9,10.4-14.3l10.4-13.6,5.7-16.3c3.1-9,6-16.8,6.6-17.4s.8,6.9.7,20.9l-.3,21.9-16,9.8c-16.1,9.9-17.5,10.6-17.5,9Z"/><path class="cls-3" d="M510.2,559.5c-4.9-4.4-8.5-6.8-11.4-7.5-16.6-4.4-17-5-2.7-5h11.4l5.7,9.5c3.1,5.2,5.3,9.5,4.9,9.5s-4-2.9-7.9-6.5Z"/><path class="cls-3" d="M423.7,510.4c-3.8-3.4-7.6-6.5-8.5-6.8s-5.7-1.7-10.7-3.3l-9-2.8,11.3-.3c6.3-.1,12,.2,13.1.8,2,1,11.4,16.6,10.9,18-.2.4-3.4-2.1-7.1-5.6Z"/><path class="cls-3" d="M596.9,510.1c-5.9-5.4-7.5-6.2-16.2-8.8-5.3-1.5-9.7-3.2-9.7-3.6s5.3-.6,11.7-.5l11.7.3,4.9,8.3c2.7,4.5,4.7,8.7,4.5,9.2S600.5,513.3,596.9,510.1Z"/><path class="cls-3" d="M510.3,460.1c-6.7-6.3-7.7-6.9-15.7-9.1-4.7-1.2-8.6-2.7-8.6-3.1s4.8-.9,10.8-.9h10.7l5.3,9.1c2.9,5,5.2,9.4,5,9.9S514.3,463.8,510.3,460.1Z"/><path class="cls-3" d="M422.4,409.5c-6.4-5.6-7.9-6.4-14.8-8.1-10.8-2.5-10.3-4.4,1.2-4.3a62.15,62.15,0,0,1,10.5.7c1.9.8,12,16.9,10.9,17.5-.4.3-3.9-2.4-7.8-5.8Z"/><path class="cls-3" d="M596.5,410c-5.4-5.3-6.8-6.1-14.2-8.2-4.9-1.3-8.3-2.8-8.3-3.5,0-1,2.2-1.3,8.3-1.3a68.21,68.21,0,0,1,10.3.6c2.3.6,13.1,18.5,11.1,18.3-.7,0-3.9-2.7-7.2-5.9Z"/><path class="cls-3" d="M509.4,359.7c-6.1-5.4-8-6.5-14-8.1-3.8-1-7.7-2-8.6-2.3s-1.8-.9-1.8-1.4c0-1.4,20.3-1.1,22.2.4,2.1,1.6,10,15.5,9.6,16.8C516.6,365.6,513.3,363.2,509.4,359.7Z"/><path class="cls-3" d="M422.9,310.3c-5.8-5.2-7.5-6.2-15-8.3-4.6-1.3-8.8-2.7-9.4-3.2s4.3-.8,10.7-.8h11.5l4.7,8.1c2.6,4.4,4.6,8.5,4.4,9.1s-3.3-1.7-6.9-4.9Z"/><path class="cls-3" d="M596.4,310.1c-5.7-5.4-6.8-6-15.3-8.2-5-1.3-9.1-2.7-9.1-3.1s5.1-.8,11.3-.8l11.2.1,5.2,8.9c2.8,5,4.6,9,4,9s-4-2.7-7.3-5.9Z"/><path class="cls-3" d="M509.7,260.1c-5.8-5.5-7.1-6.2-15-8.3-4.8-1.2-8.7-2.6-8.7-3s4.9-.8,10.9-.8h10.9l3.8,6.8c2,3.7,4.4,7.7,5.2,9,2.6,4-.5,2.4-7.1-3.7Z"/><path class="cls-3" d="M423.4,211.1c-6.7-6.2-7.6-6.7-16.2-9.1-5.1-1.3-9.2-2.8-9.2-3.2s5.1-.8,11.4-.8h11.4l5.1,9.1c2.9,5,5.1,9.4,4.9,9.9s-3.5-2.2-7.4-5.9Z"/><path class="cls-3" d="M596.4,210.6c-6.3-5.6-7.9-6.4-15.7-8.5-4.8-1.3-8.7-2.8-8.7-3.2s5.1-.9,11.3-.9h11.2l4.8,8.6c2.6,4.7,4.7,8.9,4.5,9.4s-3.5-2-7.4-5.4Z"/><path class="cls-3" d="M510,160.6c-6-5.8-7.1-6.4-15.2-8.7-4.9-1.3-8.8-2.7-8.8-3.1s4.8-.8,10.8-.8h10.7l5.3,9C520.1,169.6,519.7,170.1,510,160.6Z"/><path class="cls-3" d="M427.9,115.3c-.8-.9-3.9-3.7-6.9-6.2-4.5-3.8-7.1-5-13.3-6.6-4.2-1-7.7-2.3-7.7-2.7s4.7-.8,10.4-.8h10.5l5,8.6c2.8,4.7,5.1,8.8,5.1,9C431,117.6,429.1,116.8,427.9,115.3Z"/><path class="cls-3" d="M596.2,110.6c-5.1-4.8-6.7-5.8-14-7.8-4.5-1.2-8.2-2.6-8.2-3s4.6-.8,10.3-.8h10.2l4.7,8c2.6,4.4,4.2,8.2,3.7,8.6S599.4,113.7,596.2,110.6Z"/><path class="cls-3" d="M510,60.9c-4.9-4.4-7.9-6.3-12-7.5-10.4-3-12-3.6-12-4.5s17.6-1.1,20.3-.1c1.9.8,11.9,16.9,10.9,17.6C516.8,66.6,513.6,64.2,510,60.9Z"/></svg>